<svg xmlns="http://www.w3.org/2000/svg" viewBox="0 0 1200 600" width="1200" height="600" role="img" aria-label="Aditya Dixit — profile masthead">
<defs>
  <linearGradient id="vign" x1="0" y1="0" x2="0" y2="1">
    <stop offset="0" stop-color="#05070c"/>
    <stop offset="0.6" stop-color="#060910"/>
    <stop offset="1" stop-color="#04060b"/>
  </linearGradient>
  <radialGradient id="gCool" cx="0.5" cy="0.5" r="0.5">
    <stop offset="0" stop-color="#4aa8ff" stop-opacity="0.10"/>
    <stop offset="1" stop-color="#4aa8ff" stop-opacity="0"/>
  </radialGradient>
  <radialGradient id="gWarm" cx="0.5" cy="0.5" r="0.5">
    <stop offset="0" stop-color="#e8a33d" stop-opacity="0.07"/>
    <stop offset="1" stop-color="#e8a33d" stop-opacity="0"/>
  </radialGradient>
  <radialGradient id="body" cx="0.38" cy="0.34" r="0.8">
    <stop offset="0" stop-color="#9ec5ff"/>
    <stop offset="0.5" stop-color="#2f6fd0"/>
    <stop offset="1" stop-color="#0d1c33"/>
  </radialGradient>
  <linearGradient id="ruleFade" x1="0" y1="0" x2="1" y2="0">
    <stop offset="0" stop-color="#4aa8ff" stop-opacity="0"/>
    <stop offset="0.5" stop-color="#4aa8ff" stop-opacity="0.55"/>
    <stop offset="1" stop-color="#4aa8ff" stop-opacity="0"/>
  </linearGradient>
  <pattern id="grid" width="40" height="40" patternUnits="userSpaceOnUse">
    <path d="M40 0H0V40" fill="none" stroke="#0e1826" stroke-width="1"/>
  </pattern>
  <pattern id="gridHi" width="200" height="200" patternUnits="userSpaceOnUse">
    <path d="M200 0H0V200" fill="none" stroke="#131f2e" stroke-width="1"/>
  </pattern>
  <style><![CDATA[
    .pf-blink { animation: pf-blink 1.1s steps(1,end) infinite; }
    @keyframes pf-blink { 0%,49% { opacity: 1; } 50%,100% { opacity: 0; } }
    .pf-pulse { animation: pf-pulse 2.6s ease-in-out infinite; }
    @keyframes pf-pulse { 0%,100% { opacity: 1; } 50% { opacity: 0.35; } }
    .pf-rise { animation: pf-rise 1.05s cubic-bezier(.22,.61,.36,1) both; }
    @keyframes pf-rise { from { opacity: 0; transform: translateY(14px); } to { opacity: 1; transform: translateY(0); } }
    .pf-fade { animation: pf-fade 1.2s ease-out both; }
    @keyframes pf-fade { from { opacity: 0; } to { opacity: 1; } }
    .pf-role { animation: pf-role 13s linear infinite; }
    .pf-role-1 { animation-delay: -9.75s; }
    .pf-role-2 { animation-delay: -6.5s; }
    .pf-role-3 { animation-delay: -3.25s; }
    @keyframes pf-role { 0% { opacity: 1; } 23% { opacity: 1; } 25%,100% { opacity: 0; } }
  ]]></style>
</defs>
  <rect width="1200" height="600" fill="url(#vign)"/>
  <rect width="1200" height="600" fill="url(#grid)"/><rect width="1200" height="600" fill="url(#gridHi)"/>
  <ellipse cx="960" cy="150" rx="460" ry="320" fill="url(#gCool)"/>
  <ellipse cx="150" cy="560" rx="420" ry="280" fill="url(#gWarm)"/>
  <g><g opacity="0.9"><animateTransform attributeName="transform" type="translate" values="0 0;0 600" dur="110s" repeatCount="indefinite"/><circle cx="307.1" cy="355.7" r="0.80" fill="#a9c4e6" opacity="0.27"/><circle cx="307.1" cy="-244.3" r="0.80" fill="#a9c4e6" opacity="0.27"/><circle cx="144.8" cy="227.5" r="0.57" fill="#c9d9ee" opacity="0.10"/><circle cx="144.8" cy="-372.5" r="0.57" fill="#c9d9ee" opacity="0.10"/><circle cx="243.9" cy="505.7" r="0.41" fill="#a9c4e6" opacity="0.13"/><circle cx="243.9" cy="-94.3" r="0.41" fill="#a9c4e6" opacity="0.13"/><circle cx="127.1" cy="205.9" r="0.56" fill="#c9d9ee" opacity="0.25"/><circle cx="127.1" cy="-394.1" r="0.56" fill="#c9d9ee" opacity="0.25"/><circle cx="1101.1" cy="236.3" r="0.78" fill="#c9d9ee" opacity="0.27"/><circle cx="1101.1" cy="-363.7" r="0.78" fill="#c9d9ee" opacity="0.27"/><circle cx="731.2" cy="473.5" r="0.57" fill="#ffffff" opacity="0.26"/><circle cx="731.2" cy="-126.5" r="0.57" fill="#ffffff" opacity="0.26"/><circle cx="259.1" cy="125.5" r="0.56" fill="#c9d9ee" opacity="0.26"/><circle cx="259.1" cy="-474.5" r="0.56" fill="#c9d9ee" opacity="0.26"/><circle cx="307.6" cy="227.1" r="0.67" fill="#c9d9ee" opacity="0.11"/><circle cx="307.6" cy="-372.9" r="0.67" fill="#c9d9ee" opacity="0.11"/><circle cx="438.6" cy="474.4" r="0.58" fill="#c9d9ee" opacity="0.13"/><circle cx="438.6" cy="-125.6" r="0.58" fill="#c9d9ee" opacity="0.13"/><circle cx="189.0" cy="425.8" r="0.44" fill="#a9c4e6" opacity="0.19"/><circle cx="189.0" cy="-174.2" r="0.44" fill="#a9c4e6" opacity="0.19"/><circle cx="162.9" cy="198.0" r="0.50" fill="#c9d9ee" opacity="0.12"/><circle cx="162.9" cy="-402.0" r="0.50" fill="#c9d9ee" opacity="0.12"/><circle cx="292.8" cy="486.6" r="0.48" fill="#c9d9ee" opacity="0.13"/><circle cx="292.8" cy="-113.4" r="0.48" fill="#c9d9ee" opacity="0.13"/><circle cx="1091.3" cy="278.4" r="0.63" fill="#c9d9ee" opacity="0.08"/><circle cx="1091.3" cy="-321.6" r="0.63" fill="#c9d9ee" opacity="0.08"/><circle cx="1043.5" cy="469.3" r="0.81" fill="#a9c4e6" opacity="0.20"/><circle cx="1043.5" cy="-130.7" r="0.81" fill="#a9c4e6" opacity="0.20"/><circle cx="712.6" cy="260.7" r="0.62" fill="#a9c4e6" opacity="0.15"/><circle cx="712.6" cy="-339.3" r="0.62" fill="#a9c4e6" opacity="0.15"/><circle cx="795.3" cy="222.7" r="0.86" fill="#c9d9ee" opacity="0.08"/><circle cx="795.3" cy="-377.3" r="0.86" fill="#c9d9ee" opacity="0.08"/><circle cx="863.5" cy="212.5" r="0.69" fill="#a9c4e6" opacity="0.18"/><circle cx="863.5" cy="-387.5" r="0.69" fill="#a9c4e6" opacity="0.18"/><circle cx="1017.7" cy="421.6" r="0.53" fill="#c9d9ee" opacity="0.11"/><circle cx="1017.7" cy="-178.4" r="0.53" fill="#c9d9ee" opacity="0.11"/><circle cx="1184.1" cy="340.6" r="0.80" fill="#ffffff" opacity="0.17"/><circle cx="1184.1" cy="-259.4" r="0.80" fill="#ffffff" opacity="0.17"/><circle cx="436.7" cy="150.4" r="0.68" fill="#a9c4e6" opacity="0.16"/><circle cx="436.7" cy="-449.6" r="0.68" fill="#a9c4e6" opacity="0.16"/><circle cx="30.8" cy="375.6" r="0.45" fill="#c9d9ee" opacity="0.23"/><circle cx="30.8" cy="-224.4" r="0.45" fill="#c9d9ee" opacity="0.23"/><circle cx="503.7" cy="375.2" r="0.53" fill="#c9d9ee" opacity="0.22"/><circle cx="503.7" cy="-224.8" r="0.53" fill="#c9d9ee" opacity="0.22"/><circle cx="273.7" cy="316.4" r="0.41" fill="#a9c4e6" opacity="0.15"/><circle cx="273.7" cy="-283.6" r="0.41" fill="#a9c4e6" opacity="0.15"/><circle cx="1042.2" cy="452.5" r="0.52" fill="#ffffff" opacity="0.10"/><circle cx="1042.2" cy="-147.5" r="0.52" fill="#ffffff" opacity="0.10"/><circle cx="638.9" cy="60.2" r="0.77" fill="#ffffff" opacity="0.09"/><circle cx="638.9" cy="-539.8" r="0.77" fill="#ffffff" opacity="0.09"/><circle cx="511.9" cy="185.1" r="0.43" fill="#a9c4e6" opacity="0.15"/><circle cx="511.9" cy="-414.9" r="0.43" fill="#a9c4e6" opacity="0.15"/><circle cx="393.9" cy="357.4" r="0.60" fill="#ffffff" opacity="0.14"/><circle cx="393.9" cy="-242.6" r="0.60" fill="#ffffff" opacity="0.14"/><circle cx="836.0" cy="358.9" r="0.60" fill="#c9d9ee" opacity="0.21"/><circle cx="836.0" cy="-241.1" r="0.60" fill="#c9d9ee" opacity="0.21"/><circle cx="905.9" cy="315.2" r="0.49" fill="#ffffff" opacity="0.13"/><circle cx="905.9" cy="-284.8" r="0.49" fill="#ffffff" opacity="0.13"/><circle cx="1008.9" cy="570.6" r="0.49" fill="#c9d9ee" opacity="0.12"/><circle cx="1008.9" cy="-29.4" r="0.49" fill="#c9d9ee" opacity="0.12"/><circle cx="515.1" cy="78.4" r="0.42" fill="#c9d9ee" opacity="0.13"/><circle cx="515.1" cy="-521.6" r="0.42" fill="#c9d9ee" opacity="0.13"/><circle cx="103.5" cy="369.8" r="0.49" fill="#c9d9ee" opacity="0.18"/><circle cx="103.5" cy="-230.2" r="0.49" fill="#c9d9ee" opacity="0.18"/><circle cx="1022.8" cy="36.6" r="0.58" fill="#ffffff" opacity="0.23"/><circle cx="1022.8" cy="-563.4" r="0.58" fill="#ffffff" opacity="0.23"/><circle cx="871.6" cy="509.6" r="0.56" fill="#c9d9ee" opacity="0.28"/><circle cx="871.6" cy="-90.4" r="0.56" fill="#c9d9ee" opacity="0.28"/><circle cx="870.2" cy="54.0" r="0.70" fill="#a9c4e6" opacity="0.25"/><circle cx="870.2" cy="-546.0" r="0.70" fill="#a9c4e6" opacity="0.25"/><circle cx="79.2" cy="578.2" r="0.74" fill="#c9d9ee" opacity="0.28"/><circle cx="79.2" cy="-21.8" r="0.74" fill="#c9d9ee" opacity="0.28"/><circle cx="125.2" cy="429.5" r="0.78" fill="#a9c4e6" opacity="0.11"/><circle cx="125.2" cy="-170.5" r="0.78" fill="#a9c4e6" opacity="0.11"/><circle cx="301.2" cy="194.5" r="0.81" fill="#ffffff" opacity="0.19"/><circle cx="301.2" cy="-405.5" r="0.81" fill="#ffffff" opacity="0.19"/><circle cx="563.8" cy="334.3" r="0.62" fill="#c9d9ee" opacity="0.18"/><circle cx="563.8" cy="-265.7" r="0.62" fill="#c9d9ee" opacity="0.18"/><circle cx="386.3" cy="547.1" r="0.61" fill="#a9c4e6" opacity="0.11"/><circle cx="386.3" cy="-52.9" r="0.61" fill="#a9c4e6" opacity="0.11"/><circle cx="635.5" cy="376.5" r="0.73" fill="#ffffff" opacity="0.17"/><circle cx="635.5" cy="-223.5" r="0.73" fill="#ffffff" opacity="0.17"/><circle cx="808.5" cy="188.3" r="0.46" fill="#c9d9ee" opacity="0.24"/><circle cx="808.5" cy="-411.7" r="0.46" fill="#c9d9ee" opacity="0.24"/><circle cx="118.5" cy="348.0" r="0.76" fill="#a9c4e6" opacity="0.27"/><circle cx="118.5" cy="-252.0" r="0.76" fill="#a9c4e6" opacity="0.27"/><circle cx="373.1" cy="138.6" r="0.87" fill="#c9d9ee" opacity="0.17"/><circle cx="373.1" cy="-461.4" r="0.87" fill="#c9d9ee" opacity="0.17"/><circle cx="121.1" cy="373.7" r="0.66" fill="#a9c4e6" opacity="0.16"/><circle cx="121.1" cy="-226.3" r="0.66" fill="#a9c4e6" opacity="0.16"/><circle cx="521.3" cy="451.8" r="0.74" fill="#a9c4e6" opacity="0.21"/><circle cx="521.3" cy="-148.2" r="0.74" fill="#a9c4e6" opacity="0.21"/><circle cx="621.8" cy="375.5" r="0.86" fill="#a9c4e6" opacity="0.11"/><circle cx="621.8" cy="-224.5" r="0.86" fill="#a9c4e6" opacity="0.11"/><circle cx="131.5" cy="4.0" r="0.71" fill="#a9c4e6" opacity="0.18"/><circle cx="131.5" cy="-596.0" r="0.71" fill="#a9c4e6" opacity="0.18"/><circle cx="997.0" cy="163.7" r="0.51" fill="#c9d9ee" opacity="0.26"/><circle cx="997.0" cy="-436.3" r="0.51" fill="#c9d9ee" opacity="0.26"/><circle cx="675.1" cy="24.5" r="0.53" fill="#c9d9ee" opacity="0.15"/><circle cx="675.1" cy="-575.5" r="0.53" fill="#c9d9ee" opacity="0.15"/><circle cx="438.1" cy="36.2" r="0.79" fill="#ffffff" opacity="0.10"/><circle cx="438.1" cy="-563.8" r="0.79" fill="#ffffff" opacity="0.10"/><circle cx="741.8" cy="220.9" r="0.53" fill="#a9c4e6" opacity="0.12"/><circle cx="741.8" cy="-379.1" r="0.53" fill="#a9c4e6" opacity="0.12"/><circle cx="1188.7" cy="556.1" r="0.43" fill="#ffffff" opacity="0.23"/><circle cx="1188.7" cy="-43.9" r="0.43" fill="#ffffff" opacity="0.23"/><circle cx="899.8" cy="369.8" r="0.86" fill="#c9d9ee" opacity="0.20"/><circle cx="899.8" cy="-230.2" r="0.86" fill="#c9d9ee" opacity="0.20"/><circle cx="113.0" cy="429.2" r="0.50" fill="#a9c4e6" opacity="0.10"/><circle cx="113.0" cy="-170.8" r="0.50" fill="#a9c4e6" opacity="0.10"/><circle cx="419.4" cy="187.4" r="0.86" fill="#a9c4e6" opacity="0.10"/><circle cx="419.4" cy="-412.6" r="0.86" fill="#a9c4e6" opacity="0.10"/><circle cx="561.1" cy="574.5" r="0.75" fill="#c9d9ee" opacity="0.18"/><circle cx="561.1" cy="-25.5" r="0.75" fill="#c9d9ee" opacity="0.18"/><circle cx="1035.9" cy="272.5" r="0.73" fill="#ffffff" opacity="0.16"/><circle cx="1035.9" cy="-327.5" r="0.73" fill="#ffffff" opacity="0.16"/><circle cx="17.9" cy="222.2" r="0.57" fill="#a9c4e6" opacity="0.27"/><circle cx="17.9" cy="-377.8" r="0.57" fill="#a9c4e6" opacity="0.27"/><circle cx="402.3" cy="570.1" r="0.55" fill="#ffffff" opacity="0.17"/><circle cx="402.3" cy="-29.9" r="0.55" fill="#ffffff" opacity="0.17"/><circle cx="138.3" cy="242.1" r="0.87" fill="#ffffff" opacity="0.16"/><circle cx="138.3" cy="-357.9" r="0.87" fill="#ffffff" opacity="0.16"/><circle cx="342.4" cy="593.4" r="0.42" fill="#c9d9ee" opacity="0.28"/><circle cx="342.4" cy="-6.6" r="0.42" fill="#c9d9ee" opacity="0.28"/><circle cx="82.9" cy="468.9" r="0.53" fill="#c9d9ee" opacity="0.14"/><circle cx="82.9" cy="-131.1" r="0.53" fill="#c9d9ee" opacity="0.14"/><circle cx="220.2" cy="325.7" r="0.79" fill="#c9d9ee" opacity="0.18"/><circle cx="220.2" cy="-274.3" r="0.79" fill="#c9d9ee" opacity="0.18"/><circle cx="426.9" cy="530.0" r="0.58" fill="#c9d9ee" opacity="0.21"/><circle cx="426.9" cy="-70.0" r="0.58" fill="#c9d9ee" opacity="0.21"/><circle cx="230.6" cy="373.4" r="0.70" fill="#ffffff" opacity="0.23"/><circle cx="230.6" cy="-226.6" r="0.70" fill="#ffffff" opacity="0.23"/><circle cx="386.0" cy="149.3" r="0.51" fill="#ffffff" opacity="0.13"/><circle cx="386.0" cy="-450.7" r="0.51" fill="#ffffff" opacity="0.13"/><circle cx="186.8" cy="1.1" r="0.59" fill="#ffffff" opacity="0.24"/><circle cx="186.8" cy="-598.9" r="0.59" fill="#ffffff" opacity="0.24"/><circle cx="263.9" cy="416.3" r="0.89" fill="#c9d9ee" opacity="0.12"/><circle cx="263.9" cy="-183.7" r="0.89" fill="#c9d9ee" opacity="0.12"/><circle cx="726.2" cy="307.3" r="0.53" fill="#a9c4e6" opacity="0.16"/><circle cx="726.2" cy="-292.7" r="0.53" fill="#a9c4e6" opacity="0.16"/></g><g opacity="1"><animateTransform attributeName="transform" type="translate" values="0 0;0 600" dur="58s" repeatCount="indefinite"/><circle cx="1197.3" cy="547.9" r="0.96" fill="#bcd7f5" opacity="0.20"><animate attributeName="opacity" values="0.20;0.06;0.20" dur="6.6s" repeatCount="indefinite"/></circle><circle cx="1197.3" cy="-52.1" r="0.96" fill="#bcd7f5" opacity="0.20"><animate attributeName="opacity" values="0.20;0.06;0.20" dur="6.6s" repeatCount="indefinite"/></circle><circle cx="415.1" cy="597.1" r="0.94" fill="#bcd7f5" opacity="0.20"><animate attributeName="opacity" values="0.20;0.06;0.20" dur="3.4s" repeatCount="indefinite"/></circle><circle cx="415.1" cy="-2.9" r="0.94" fill="#bcd7f5" opacity="0.20"><animate attributeName="opacity" values="0.20;0.06;0.20" dur="3.4s" repeatCount="indefinite"/></circle><circle cx="1117.7" cy="430.0" r="1.18" fill="#ffe0a8" opacity="0.18"/><circle cx="1117.7" cy="-170.0" r="1.18" fill="#ffe0a8" opacity="0.18"/><circle cx="641.9" cy="46.2" r="1.19" fill="#ffffff" opacity="0.17"/><circle cx="641.9" cy="-553.8" r="1.19" fill="#ffffff" opacity="0.17"/><circle cx="757.1" cy="501.7" r="0.90" fill="#ffffff" opacity="0.35"/><circle cx="757.1" cy="-98.3" r="0.90" fill="#ffffff" opacity="0.35"/><circle cx="1016.9" cy="599.3" r="1.04" fill="#bcd7f5" opacity="0.35"/><circle cx="1016.9" cy="-0.7" r="1.04" fill="#bcd7f5" opacity="0.35"/><circle cx="802.2" cy="492.7" r="0.67" fill="#ffffff" opacity="0.32"/><circle cx="802.2" cy="-107.3" r="0.67" fill="#ffffff" opacity="0.32"/><circle cx="141.5" cy="236.2" r="1.02" fill="#ffffff" opacity="0.16"/><circle cx="141.5" cy="-363.8" r="1.02" fill="#ffffff" opacity="0.16"/><circle cx="529.1" cy="382.0" r="0.63" fill="#ffffff" opacity="0.26"><animate attributeName="opacity" values="0.26;0.08;0.26" dur="5.3s" repeatCount="indefinite"/></circle><circle cx="529.1" cy="-218.0" r="0.63" fill="#ffffff" opacity="0.26"><animate attributeName="opacity" values="0.26;0.08;0.26" dur="5.3s" repeatCount="indefinite"/></circle><circle cx="340.6" cy="210.9" r="1.15" fill="#ffffff" opacity="0.41"/><circle cx="340.6" cy="-389.1" r="1.15" fill="#ffffff" opacity="0.41"/><circle cx="422.5" cy="304.5" r="0.95" fill="#ffffff" opacity="0.27"/><circle cx="422.5" cy="-295.5" r="0.95" fill="#ffffff" opacity="0.27"/><circle cx="444.6" cy="158.7" r="0.97" fill="#bcd7f5" opacity="0.36"><animate attributeName="opacity" values="0.36;0.11;0.36" dur="4.1s" repeatCount="indefinite"/></circle><circle cx="444.6" cy="-441.3" r="0.97" fill="#bcd7f5" opacity="0.36"><animate attributeName="opacity" values="0.36;0.11;0.36" dur="4.1s" repeatCount="indefinite"/></circle><circle cx="582.9" cy="381.3" r="0.96" fill="#bcd7f5" opacity="0.15"/><circle cx="582.9" cy="-218.7" r="0.96" fill="#bcd7f5" opacity="0.15"/><circle cx="920.4" cy="310.6" r="1.19" fill="#ffe0a8" opacity="0.20"><animate attributeName="opacity" values="0.20;0.06;0.20" dur="3.6s" repeatCount="indefinite"/></circle><circle cx="920.4" cy="-289.4" r="1.19" fill="#ffe0a8" opacity="0.20"><animate attributeName="opacity" values="0.20;0.06;0.20" dur="3.6s" repeatCount="indefinite"/></circle><circle cx="307.4" cy="348.5" r="0.94" fill="#ffffff" opacity="0.35"/><circle cx="307.4" cy="-251.5" r="0.94" fill="#ffffff" opacity="0.35"/><circle cx="515.4" cy="62.0" r="0.92" fill="#ffe0a8" opacity="0.29"><animate attributeName="opacity" values="0.29;0.09;0.29" dur="5.6s" repeatCount="indefinite"/></circle><circle cx="515.4" cy="-538.0" r="0.92" fill="#ffe0a8" opacity="0.29"><animate attributeName="opacity" values="0.29;0.09;0.29" dur="5.6s" repeatCount="indefinite"/></circle><circle cx="1175.8" cy="6.3" r="0.70" fill="#bcd7f5" opacity="0.37"/><circle cx="1175.8" cy="-593.7" r="0.70" fill="#bcd7f5" opacity="0.37"/><circle cx="593.0" cy="549.3" r="1.06" fill="#bcd7f5" opacity="0.40"><animate attributeName="opacity" values="0.40;0.12;0.40" dur="3.7s" repeatCount="indefinite"/></circle><circle cx="593.0" cy="-50.7" r="1.06" fill="#bcd7f5" opacity="0.40"><animate attributeName="opacity" values="0.40;0.12;0.40" dur="3.7s" repeatCount="indefinite"/></circle><circle cx="186.8" cy="268.4" r="1.18" fill="#ffe0a8" opacity="0.17"/><circle cx="186.8" cy="-331.6" r="1.18" fill="#ffe0a8" opacity="0.17"/><circle cx="44.9" cy="524.9" r="0.76" fill="#ffffff" opacity="0.30"/><circle cx="44.9" cy="-75.1" r="0.76" fill="#ffffff" opacity="0.30"/><circle cx="401.7" cy="350.5" r="0.87" fill="#ffffff" opacity="0.25"><animate attributeName="opacity" values="0.25;0.07;0.25" dur="4.9s" repeatCount="indefinite"/></circle><circle cx="401.7" cy="-249.5" r="0.87" fill="#ffffff" opacity="0.25"><animate attributeName="opacity" values="0.25;0.07;0.25" dur="4.9s" repeatCount="indefinite"/></circle><circle cx="948.2" cy="446.5" r="0.96" fill="#ffe0a8" opacity="0.17"><animate attributeName="opacity" values="0.17;0.05;0.17" dur="6.4s" repeatCount="indefinite"/></circle><circle cx="948.2" cy="-153.5" r="0.96" fill="#ffe0a8" opacity="0.17"><animate attributeName="opacity" values="0.17;0.05;0.17" dur="6.4s" repeatCount="indefinite"/></circle><circle cx="1123.1" cy="59.6" r="1.09" fill="#ffffff" opacity="0.23"><animate attributeName="opacity" values="0.23;0.07;0.23" dur="5.8s" repeatCount="indefinite"/></circle><circle cx="1123.1" cy="-540.4" r="1.09" fill="#ffffff" opacity="0.23"><animate attributeName="opacity" values="0.23;0.07;0.23" dur="5.8s" repeatCount="indefinite"/></circle><circle cx="777.5" cy="378.3" r="1.06" fill="#bcd7f5" opacity="0.18"/><circle cx="777.5" cy="-221.7" r="1.06" fill="#bcd7f5" opacity="0.18"/><circle cx="650.5" cy="106.0" r="1.13" fill="#ffe0a8" opacity="0.20"/><circle cx="650.5" cy="-494.0" r="1.13" fill="#ffe0a8" opacity="0.20"/><circle cx="1183.2" cy="244.6" r="0.60" fill="#ffe0a8" opacity="0.21"/><circle cx="1183.2" cy="-355.4" r="0.60" fill="#ffe0a8" opacity="0.21"/><circle cx="814.2" cy="131.9" r="0.86" fill="#ffffff" opacity="0.21"/><circle cx="814.2" cy="-468.1" r="0.86" fill="#ffffff" opacity="0.21"/><circle cx="939.1" cy="167.1" r="1.19" fill="#ffffff" opacity="0.31"/><circle cx="939.1" cy="-432.9" r="1.19" fill="#ffffff" opacity="0.31"/><circle cx="349.5" cy="84.0" r="0.82" fill="#ffffff" opacity="0.15"/><circle cx="349.5" cy="-516.0" r="0.82" fill="#ffffff" opacity="0.15"/><circle cx="1163.9" cy="457.1" r="0.76" fill="#ffffff" opacity="0.29"><animate attributeName="opacity" values="0.29;0.09;0.29" dur="4.2s" repeatCount="indefinite"/></circle><circle cx="1163.9" cy="-142.9" r="0.76" fill="#ffffff" opacity="0.29"><animate attributeName="opacity" values="0.29;0.09;0.29" dur="4.2s" repeatCount="indefinite"/></circle></g><g opacity="1"><animateTransform attributeName="transform" type="translate" values="0 0;0 600" dur="30s" repeatCount="indefinite"/><circle cx="157.1" cy="469.6" r="1.17" fill="#cfe6ff" opacity="0.52"><animate attributeName="opacity" values="0.52;0.16;0.52" dur="4.5s" repeatCount="indefinite"/></circle><circle cx="157.1" cy="-130.4" r="1.17" fill="#cfe6ff" opacity="0.52"><animate attributeName="opacity" values="0.52;0.16;0.52" dur="4.5s" repeatCount="indefinite"/></circle><circle cx="458.2" cy="275.8" r="1.30" fill="#cfe6ff" opacity="0.30"/><circle cx="458.2" cy="-324.2" r="1.30" fill="#cfe6ff" opacity="0.30"/><circle cx="553.5" cy="349.5" r="1.31" fill="#cfe6ff" opacity="0.53"><animate attributeName="opacity" values="0.53;0.16;0.53" dur="7.2s" repeatCount="indefinite"/></circle><circle cx="553.5" cy="-250.5" r="1.31" fill="#cfe6ff" opacity="0.53"><animate attributeName="opacity" values="0.53;0.16;0.53" dur="7.2s" repeatCount="indefinite"/></circle><circle cx="221.2" cy="557.4" r="1.35" fill="#ffffff" opacity="0.67"><animate attributeName="opacity" values="0.67;0.20;0.67" dur="4.6s" repeatCount="indefinite"/></circle><circle cx="221.2" cy="-42.6" r="1.35" fill="#ffffff" opacity="0.67"><animate attributeName="opacity" values="0.67;0.20;0.67" dur="4.6s" repeatCount="indefinite"/></circle><circle cx="794.5" cy="62.7" r="1.13" fill="#cfe6ff" opacity="0.33"/><circle cx="794.5" cy="-537.3" r="1.13" fill="#cfe6ff" opacity="0.33"/><circle cx="890.0" cy="369.5" r="1.31" fill="#ffffff" opacity="0.55"/><circle cx="890.0" cy="-230.5" r="1.31" fill="#ffffff" opacity="0.55"/><circle cx="150.9" cy="407.6" r="1.03" fill="#ffffff" opacity="0.46"><animate attributeName="opacity" values="0.46;0.14;0.46" dur="4.1s" repeatCount="indefinite"/></circle><circle cx="150.9" cy="-192.4" r="1.03" fill="#ffffff" opacity="0.46"><animate attributeName="opacity" values="0.46;0.14;0.46" dur="4.1s" repeatCount="indefinite"/></circle><circle cx="702.3" cy="579.4" r="1.19" fill="#ffffff" opacity="0.58"><animate attributeName="opacity" values="0.58;0.17;0.58" dur="6.4s" repeatCount="indefinite"/></circle><circle cx="702.3" cy="-20.6" r="1.19" fill="#ffffff" opacity="0.58"><animate attributeName="opacity" values="0.58;0.17;0.58" dur="6.4s" repeatCount="indefinite"/></circle><circle cx="1004.7" cy="210.7" r="1.37" fill="#ffffff" opacity="0.69"/><circle cx="1004.7" cy="-389.3" r="1.37" fill="#ffffff" opacity="0.69"/><circle cx="352.5" cy="376.6" r="0.96" fill="#ffffff" opacity="0.67"/><circle cx="352.5" cy="-223.4" r="0.96" fill="#ffffff" opacity="0.67"/><circle cx="257.4" cy="53.5" r="1.39" fill="#ffffff" opacity="0.40"/><circle cx="257.4" cy="-546.5" r="1.39" fill="#ffffff" opacity="0.40"/><circle cx="615.7" cy="508.7" r="1.06" fill="#ffffff" opacity="0.55"/><circle cx="615.7" cy="-91.3" r="1.06" fill="#ffffff" opacity="0.55"/></g></g>

  <!-- masthead bar -->
  <g class="pf-fade">
    <rect x="40" y="28" width="32" height="32" rx="7" fill="#090e17" stroke="#16202e"/>
    <text x="56" y="49" text-anchor="middle" font-family="'SFMono-Regular','JetBrains Mono','Roboto Mono',Consolas,'Liberation Mono',monospace" font-size="12" font-weight="700" fill="#4aa8ff">AD</text>
    <text x="86" y="43" font-family="Inter,'Helvetica Neue',Helvetica,Arial,sans-serif" font-size="12.5" font-weight="700" letter-spacing="2.2" fill="#e6edf3">ADITYA DIXIT</text>
    <text x="86" y="57" font-family="'SFMono-Regular','JetBrains Mono','Roboto Mono',Consolas,'Liberation Mono',monospace" font-size="9" letter-spacing="1.6" fill="#55637a">FULL-STACK &amp; MACHINE-INTELLIGENCE ENGINEERING</text>

    <text x="1160" y="43" text-anchor="end" font-family="'SFMono-Regular','JetBrains Mono','Roboto Mono',Consolas,'Liberation Mono',monospace" font-size="10" letter-spacing="1" fill="#8b98a9">26.44°N / 80.33°E — KANPUR, IN</text>
    <circle cx="1076" cy="54" r="3.2" fill="#4ade80" class="pf-pulse"/>
    <text x="1160" y="57" text-anchor="end" font-family="'SFMono-Regular','JetBrains Mono','Roboto Mono',Consolas,'Liberation Mono',monospace" font-size="9.5" letter-spacing="1.4" fill="#8b98a9">AVAILABLE FOR WORK</text>
    <line x1="40" y1="76" x2="1160" y2="76" stroke="#16202e" stroke-width="1"/>
  </g>

  <!-- identity -->
  <g class="pf-rise" style="animation-delay:.15s">
    <text x="40" y="146" font-family="'SFMono-Regular','JetBrains Mono','Roboto Mono',Consolas,'Liberation Mono',monospace" font-size="11" letter-spacing="2.6" fill="#8b98a9">SOFTWARE ENGINEER — FULL-STACK &amp; MACHINE INTELLIGENCE</text>
    <text x="38" y="208" font-family="Inter,'Helvetica Neue',Helvetica,Arial,sans-serif" font-size="58" font-weight="700" letter-spacing="-1.2" fill="#e6edf3">Aditya Dixit</text>
    <rect x="40" y="232" width="2" height="16" fill="#4aa8ff" class="pf-blink"/>
    <text x="54" y="248" class="pf-role pf-role-0" font-family="'SFMono-Regular','JetBrains Mono','Roboto Mono',Consolas,'Liberation Mono',monospace" font-size="14.5" letter-spacing="0.6" fill="#4aa8ff">Full-Stack Engineer</text><text x="54" y="248" class="pf-role pf-role-1" font-family="'SFMono-Regular','JetBrains Mono','Roboto Mono',Consolas,'Liberation Mono',monospace" font-size="14.5" letter-spacing="0.6" fill="#4aa8ff">Machine-Intelligence Engineer</text><text x="54" y="248" class="pf-role pf-role-2" font-family="'SFMono-Regular','JetBrains Mono','Roboto Mono',Consolas,'Liberation Mono',monospace" font-size="14.5" letter-spacing="0.6" fill="#4aa8ff">React / Node Systems</text><text x="54" y="248" class="pf-role pf-role-3" font-family="'SFMono-Regular','JetBrains Mono','Roboto Mono',Consolas,'Liberation Mono',monospace" font-size="14.5" letter-spacing="0.6" fill="#4aa8ff">RAG &amp; LLM Pipelines</text>
    <text x="40" y="284" font-family="Inter,'Helvetica Neue',Helvetica,Arial,sans-serif" font-size="14" fill="#8b98a9">I design and ship production software — full-stack systems with rigorous auth,</text>
    <text x="40" y="305" font-family="Inter,'Helvetica Neue',Helvetica,Arial,sans-serif" font-size="14" fill="#8b98a9">payments and data layers, plus machine-intelligence features that hold up live.</text>
    <text x="40" y="340" font-family="'SFMono-Regular','JetBrains Mono','Roboto Mono',Consolas,'Liberation Mono',monospace" font-size="10.5" letter-spacing="1.4" fill="#8b98a9">B.TECH CSE, PSIT KANPUR</text><line x1="237" y1="330" x2="237" y2="342" stroke="#16202e" stroke-width="1"/><text x="259" y="340" font-family="'SFMono-Regular','JetBrains Mono','Roboto Mono',Consolas,'Liberation Mono',monospace" font-size="10.5" letter-spacing="1.4" fill="#8b98a9">7+ PRODUCTS SHIPPED</text><line x1="417" y1="330" x2="417" y2="342" stroke="#16202e" stroke-width="1"/><text x="439" y="340" font-family="'SFMono-Regular','JetBrains Mono','Roboto Mono',Consolas,'Liberation Mono',monospace" font-size="10.5" letter-spacing="1.4" fill="#8b98a9">NATIONAL FINALIST 2026</text>
  </g>

  <!-- systems panel -->
  <g class="pf-fade" style="animation-delay:.35s">
    <rect x="690" y="118" width="470" height="300" rx="10" fill="#090e17" stroke="#1d2b3d"/>
    <text x="714" y="146" font-family="'SFMono-Regular','JetBrains Mono','Roboto Mono',Consolas,'Liberation Mono',monospace" font-size="10" letter-spacing="2" fill="#8b98a9">SYSTEM MAP</text>
    <text x="1136" y="146" text-anchor="end" font-family="'SFMono-Regular','JetBrains Mono','Roboto Mono',Consolas,'Liberation Mono',monospace" font-size="10" letter-spacing="1.4" fill="#55637a">FIG. 01</text>
    <line x1="690" y1="158" x2="1160" y2="158" stroke="#131f2e"/>

    <g stroke="#2f5478" stroke-width="1">
      <circle cx="925" cy="292" r="105" fill="none"/>
      <circle cx="925" cy="292" r="78" fill="none" stroke-dasharray="3 5"/>
      <circle cx="925" cy="292" r="52" fill="none"/>
    </g>
    <line x1="820" y1="292" x2="1030" y2="292" stroke="#1c3450" stroke-width="1"/>
    <line x1="925" y1="187" x2="925" y2="397" stroke="#1c3450" stroke-width="1"/>
    <line x1="1030.0" y1="292.0" x2="1039.0" y2="292.0" stroke="#1b2f45" stroke-width="1" opacity="0.8"/><line x1="1028.4" y1="310.2" x2="1033.3" y2="311.1" stroke="#1b2f45" stroke-width="1" opacity="0.8"/><line x1="1023.7" y1="327.9" x2="1028.4" y2="329.6" stroke="#1b2f45" stroke-width="1" opacity="0.8"/><line x1="1015.9" y1="344.5" x2="1023.7" y2="349.0" stroke="#1b2f45" stroke-width="1" opacity="0.8"/><line x1="1005.4" y1="359.5" x2="1009.3" y2="362.7" stroke="#1b2f45" stroke-width="1" opacity="0.8"/><line x1="992.5" y1="372.4" x2="995.7" y2="376.3" stroke="#1b2f45" stroke-width="1" opacity="0.8"/><line x1="977.5" y1="382.9" x2="982.0" y2="390.7" stroke="#1b2f45" stroke-width="1" opacity="0.8"/><line x1="960.9" y1="390.7" x2="962.6" y2="395.4" stroke="#1b2f45" stroke-width="1" opacity="0.8"/><line x1="943.2" y1="395.4" x2="944.1" y2="400.3" stroke="#1b2f45" stroke-width="1" opacity="0.8"/><line x1="925.0" y1="397.0" x2="925.0" y2="406.0" stroke="#1b2f45" stroke-width="1" opacity="0.8"/><line x1="906.8" y1="395.4" x2="905.9" y2="400.3" stroke="#1b2f45" stroke-width="1" opacity="0.8"/><line x1="889.1" y1="390.7" x2="887.4" y2="395.4" stroke="#1b2f45" stroke-width="1" opacity="0.8"/><line x1="872.5" y1="382.9" x2="868.0" y2="390.7" stroke="#1b2f45" stroke-width="1" opacity="0.8"/><line x1="857.5" y1="372.4" x2="854.3" y2="376.3" stroke="#1b2f45" stroke-width="1" opacity="0.8"/><line x1="844.6" y1="359.5" x2="840.7" y2="362.7" stroke="#1b2f45" stroke-width="1" opacity="0.8"/><line x1="834.1" y1="344.5" x2="826.3" y2="349.0" stroke="#1b2f45" stroke-width="1" opacity="0.8"/><line x1="826.3" y1="327.9" x2="821.6" y2="329.6" stroke="#1b2f45" stroke-width="1" opacity="0.8"/><line x1="821.6" y1="310.2" x2="816.7" y2="311.1" stroke="#1b2f45" stroke-width="1" opacity="0.8"/><line x1="820.0" y1="292.0" x2="811.0" y2="292.0" stroke="#1b2f45" stroke-width="1" opacity="0.8"/><line x1="821.6" y1="273.8" x2="816.7" y2="272.9" stroke="#1b2f45" stroke-width="1" opacity="0.8"/><line x1="826.3" y1="256.1" x2="821.6" y2="254.4" stroke="#1b2f45" stroke-width="1" opacity="0.8"/><line x1="834.1" y1="239.5" x2="826.3" y2="235.0" stroke="#1b2f45" stroke-width="1" opacity="0.8"/><line x1="844.6" y1="224.5" x2="840.7" y2="221.3" stroke="#1b2f45" stroke-width="1" opacity="0.8"/><line x1="857.5" y1="211.6" x2="854.3" y2="207.7" stroke="#1b2f45" stroke-width="1" opacity="0.8"/><line x1="872.5" y1="201.1" x2="868.0" y2="193.3" stroke="#1b2f45" stroke-width="1" opacity="0.8"/><line x1="889.1" y1="193.3" x2="887.4" y2="188.6" stroke="#1b2f45" stroke-width="1" opacity="0.8"/><line x1="906.8" y1="188.6" x2="905.9" y2="183.7" stroke="#1b2f45" stroke-width="1" opacity="0.8"/><line x1="925.0" y1="187.0" x2="925.0" y2="178.0" stroke="#1b2f45" stroke-width="1" opacity="0.8"/><line x1="943.2" y1="188.6" x2="944.1" y2="183.7" stroke="#1b2f45" stroke-width="1" opacity="0.8"/><line x1="960.9" y1="193.3" x2="962.6" y2="188.6" stroke="#1b2f45" stroke-width="1" opacity="0.8"/><line x1="977.5" y1="201.1" x2="982.0" y2="193.3" stroke="#1b2f45" stroke-width="1" opacity="0.8"/><line x1="992.5" y1="211.6" x2="995.7" y2="207.7" stroke="#1b2f45" stroke-width="1" opacity="0.8"/><line x1="1005.4" y1="224.5" x2="1009.3" y2="221.3" stroke="#1b2f45" stroke-width="1" opacity="0.8"/><line x1="1015.9" y1="239.5" x2="1023.7" y2="235.0" stroke="#1b2f45" stroke-width="1" opacity="0.8"/><line x1="1023.7" y1="256.1" x2="1028.4" y2="254.4" stroke="#1b2f45" stroke-width="1" opacity="0.8"/><line x1="1028.4" y1="273.8" x2="1033.3" y2="272.9" stroke="#1b2f45" stroke-width="1" opacity="0.8"/>
    <circle cx="925" cy="292" r="15" fill="none" stroke="#3a607f"/>
    <circle cx="925" cy="292" r="7" fill="url(#body)"/>
    <circle cx="903" cy="270" r="1.4" fill="#55637a"/>

    <g>
      <animateTransform attributeName="transform" type="rotate" from="0 925 292" to="360 925 292" dur="30s" repeatCount="indefinite"/>
      <circle cx="1030" cy="292" r="3.4" fill="#4aa8ff"/>
      <circle cx="1030" cy="292" r="8" fill="none" stroke="#4aa8ff" stroke-opacity="0.35"/>
    </g>
    <g>
      <animateTransform attributeName="transform" type="rotate" from="360 925 292" to="0 925 292" dur="19s" repeatCount="indefinite"/>
      <circle cx="925" cy="240" r="2.6" fill="#e8a33d"/>
    </g>
    <text x="1041" y="196" font-family="'SFMono-Regular','JetBrains Mono','Roboto Mono',Consolas,'Liberation Mono',monospace" font-size="8" fill="#8b98a9">r=105</text>
    <text x="797" y="392" font-family="'SFMono-Regular','JetBrains Mono','Roboto Mono',Consolas,'Liberation Mono',monospace" font-size="8" fill="#8b98a9">REF FRAME 01</text>
  </g>

  <!-- telemetry band -->
  <g class="pf-rise" style="animation-delay:.6s">
    <rect x="40" y="440" width="1120" height="92" rx="10" fill="#090e17" stroke="#1d2b3d"/>
    <text x="40" y="432" font-family="'SFMono-Regular','JetBrains Mono','Roboto Mono',Consolas,'Liberation Mono',monospace" font-size="9" letter-spacing="2" fill="#55637a">TELEMETRY</text>
    
      <text x="84" y="492" font-family="'SFMono-Regular','JetBrains Mono','Roboto Mono',Consolas,'Liberation Mono',monospace" font-size="30" font-weight="700" fill="#e6edf3">300+</text>
      <text x="84" y="512" font-family="'SFMono-Regular','JetBrains Mono','Roboto Mono',Consolas,'Liberation Mono',monospace" font-size="9.5" letter-spacing="1.3" fill="#8b98a9">DSA PROBLEMS</text>
      <rect x="84" y="524" width="42" height="2" fill="#4aa8ff" opacity="0.55"/><line x1="264" y1="462" x2="264" y2="516" stroke="#1d2b3d" stroke-width="1"/>
      <text x="304" y="492" font-family="'SFMono-Regular','JetBrains Mono','Roboto Mono',Consolas,'Liberation Mono',monospace" font-size="30" font-weight="700" fill="#e6edf3">7+</text>
      <text x="304" y="512" font-family="'SFMono-Regular','JetBrains Mono','Roboto Mono',Consolas,'Liberation Mono',monospace" font-size="9.5" letter-spacing="1.3" fill="#8b98a9">PROJECTS SHIPPED</text>
      <rect x="304" y="524" width="42" height="2" fill="#4aa8ff" opacity="0.55"/><line x1="484" y1="462" x2="484" y2="516" stroke="#1d2b3d" stroke-width="1"/>
      <text x="524" y="492" font-family="'SFMono-Regular','JetBrains Mono','Roboto Mono',Consolas,'Liberation Mono',monospace" font-size="30" font-weight="700" fill="#e6edf3">6×</text>
      <text x="524" y="512" font-family="'SFMono-Regular','JetBrains Mono','Roboto Mono',Consolas,'Liberation Mono',monospace" font-size="9.5" letter-spacing="1.3" fill="#8b98a9">HACKATHONS LED</text>
      <rect x="524" y="524" width="42" height="2" fill="#4aa8ff" opacity="0.55"/><line x1="704" y1="462" x2="704" y2="516" stroke="#1d2b3d" stroke-width="1"/>
      <text x="744" y="492" font-family="'SFMono-Regular','JetBrains Mono','Roboto Mono',Consolas,'Liberation Mono',monospace" font-size="30" font-weight="700" fill="#e6edf3">1.0K</text>
      <text x="744" y="512" font-family="'SFMono-Regular','JetBrains Mono','Roboto Mono',Consolas,'Liberation Mono',monospace" font-size="9.5" letter-spacing="1.3" fill="#8b98a9">CONTRIBUTIONS</text>
      <rect x="744" y="524" width="42" height="2" fill="#4aa8ff" opacity="0.55"/><line x1="924" y1="462" x2="924" y2="516" stroke="#1d2b3d" stroke-width="1"/>
      <text x="964" y="492" font-family="'SFMono-Regular','JetBrains Mono','Roboto Mono',Consolas,'Liberation Mono',monospace" font-size="30" font-weight="700" fill="#e6edf3">48</text>
      <text x="964" y="512" font-family="'SFMono-Regular','JetBrains Mono','Roboto Mono',Consolas,'Liberation Mono',monospace" font-size="9.5" letter-spacing="1.3" fill="#8b98a9">STARS EARNED</text>
      <rect x="964" y="524" width="42" height="2" fill="#4aa8ff" opacity="0.55"/>
  </g>

  <g class="pf-fade" style="animation-delay:.9s">
    <line x1="40" y1="560" x2="1160" y2="560" stroke="#16202e" stroke-width="1"/>
    <text x="40" y="580" font-family="'SFMono-Regular','JetBrains Mono','Roboto Mono',Consolas,'Liberation Mono',monospace" font-size="9" letter-spacing="1.6" fill="#55637a">ADITYA-DXT · PROFILE README</text>
    <text x="1160" y="580" text-anchor="end" font-family="'SFMono-Regular','JetBrains Mono','Roboto Mono',Consolas,'Liberation Mono',monospace" font-size="9" letter-spacing="1.6" fill="#55637a">REV 2026.10 · GENERATED FROM SOURCE</text>
  </g>

  <!-- scan line -->
  <rect x="40" y="0" width="1120" height="1.5" fill="url(#ruleFade)" opacity="0">
    <animate attributeName="y" values="30;560;30" dur="14s" repeatCount="indefinite"/>
    <animate attributeName="opacity" values="0;0.5;0.5;0" dur="14s" repeatCount="indefinite"/>
  </rect>
</svg>