<svg xmlns="http://www.w3.org/2000/svg" viewBox="0 0 1200 100" width="1200" height="100">
<defs>
  <linearGradient id="bg" x1="0" y1="0" x2="1" y2="1">
    <stop offset="0" stop-color="#03040c"/>
    <stop offset="0.55" stop-color="#070a18"/>
    <stop offset="1" stop-color="#0a0724"/>
  </linearGradient>
  <linearGradient id="nameGrad" x1="0" y1="0" x2="1" y2="0">
    <stop offset="0" stop-color="#7dd3fc"/>
    <stop offset="0.5" stop-color="#c4b5fd"/>
    <stop offset="1" stop-color="#f0abfc"/>
  </linearGradient>
  <linearGradient id="lineGrad" x1="0" y1="0" x2="1" y2="0">
    <stop offset="0" stop-color="#22d3ee" stop-opacity="0"/>
    <stop offset="0.5" stop-color="#22d3ee" stop-opacity="1"/>
    <stop offset="1" stop-color="#a78bfa" stop-opacity="0"/>
  </linearGradient>
  <linearGradient id="ringGrad" x1="0" y1="0" x2="1" y2="1">
    <stop offset="0" stop-color="#22d3ee"/>
    <stop offset="0.5" stop-color="#a78bfa"/>
    <stop offset="1" stop-color="#f472b6"/>
  </linearGradient>
  <radialGradient id="nebCyan" cx="0.5" cy="0.5" r="0.5">
    <stop offset="0" stop-color="#22d3ee" stop-opacity="0.20"/>
    <stop offset="1" stop-color="#22d3ee" stop-opacity="0"/>
  </radialGradient>
  <radialGradient id="nebViolet" cx="0.5" cy="0.5" r="0.5">
    <stop offset="0" stop-color="#a78bfa" stop-opacity="0.22"/>
    <stop offset="1" stop-color="#a78bfa" stop-opacity="0"/>
  </radialGradient>
  <radialGradient id="nebPink" cx="0.5" cy="0.5" r="0.5">
    <stop offset="0" stop-color="#f472b6" stop-opacity="0.16"/>
    <stop offset="1" stop-color="#f472b6" stop-opacity="0"/>
  </radialGradient>
  <radialGradient id="planetBody" cx="0.35" cy="0.3" r="0.85">
    <stop offset="0" stop-color="#7dd3fc"/>
    <stop offset="0.35" stop-color="#2563eb"/>
    <stop offset="0.75" stop-color="#14204a"/>
    <stop offset="1" stop-color="#070b1c"/>
  </radialGradient>
  <radialGradient id="planetShade" cx="0.78" cy="0.72" r="0.9">
    <stop offset="0" stop-color="#03040c" stop-opacity="0.85"/>
    <stop offset="1" stop-color="#03040c" stop-opacity="0"/>
  </radialGradient>
  <linearGradient id="card" x1="0" y1="0" x2="1" y2="1">
    <stop offset="0" stop-color="#0b1020" stop-opacity="0.94"/>
    <stop offset="1" stop-color="#060913" stop-opacity="0.94"/>
  </linearGradient>
  <filter id="glow" x="-80%" y="-80%" width="260%" height="260%">
    <feGaussianBlur stdDeviation="3.2" result="b"/>
    <feMerge><feMergeNode in="b"/><feMergeNode in="SourceGraphic"/></feMerge>
  </filter>
  <filter id="soft" x="-80%" y="-80%" width="260%" height="260%">
    <feGaussianBlur stdDeviation="10" result="b"/>
    <feMerge><feMergeNode in="b"/><feMergeNode in="SourceGraphic"/></feMerge>
  </filter>
  <style><![CDATA[
    .pulse { animation: sp-pulse 2.4s ease-in-out infinite; }
    @keyframes sp-pulse { 0%,100% { opacity: 1; } 50% { opacity: 0.32; } }
    .blink { animation: sp-blink 1.15s step-end infinite; }
    @keyframes sp-blink { 0%,100% { opacity: 1; } 50% { opacity: 0; } }
    .hover { animation: sp-hover 3.6s ease-in-out infinite; }
    @keyframes sp-hover { 0%,100% { transform: translateY(0); } 50% { transform: translateY(-7px); } }
    .rise { animation: sp-rise 1.1s cubic-bezier(.4,0,.2,1) both; }
    @keyframes sp-rise { from { opacity: 0; transform: translateY(16px); } to { opacity: 1; transform: translateY(0); } }
    .slide { animation: sp-slide .9s cubic-bezier(.4,0,.2,1) both; }
    @keyframes sp-slide { from { opacity: 0; transform: translateX(-18px); } to { opacity: 1; transform: translateX(0); } }
    .hero-role { animation: sp-role 12s linear infinite; }
    .hero-role-1 { animation-delay: -9s; }
    .hero-role-2 { animation-delay: -6s; }
    .hero-role-3 { animation-delay: -3s; }
    @keyframes sp-role { 0% { opacity: 1; } 24% { opacity: 1; } 25% { opacity: 0; } 100% { opacity: 0; } }
  ]]></style>
</defs>
  <rect x="1" y="1" width="1198" height="98" rx="14" fill="url(#card)"/>
  <g opacity="0.95"><g><animateTransform attributeName="transform" type="translate" values="0 0;0 100" dur="90s" repeatCount="indefinite"/><circle cx="1192.3" cy="57.9" r="0.89" fill="#c7d2fe" opacity="0.14"/><circle cx="1192.3" cy="-42.1" r="0.89" fill="#c7d2fe" opacity="0.14"/><circle cx="265.8" cy="25.5" r="0.83" fill="#ffffff" opacity="0.22"/><circle cx="265.8" cy="-74.5" r="0.83" fill="#ffffff" opacity="0.22"/><circle cx="82.6" cy="90.0" r="0.46" fill="#cfe3ff" opacity="0.32"/><circle cx="82.6" cy="-10.0" r="0.46" fill="#cfe3ff" opacity="0.32"/><circle cx="822.9" cy="51.5" r="0.63" fill="#cfe3ff" opacity="0.16"/><circle cx="822.9" cy="-48.5" r="0.63" fill="#cfe3ff" opacity="0.16"/><circle cx="1029.5" cy="32.2" r="0.72" fill="#ffffff" opacity="0.33"/><circle cx="1029.5" cy="-67.8" r="0.72" fill="#ffffff" opacity="0.33"/><circle cx="399.7" cy="1.1" r="0.90" fill="#ffffff" opacity="0.29"/><circle cx="399.7" cy="-98.9" r="0.90" fill="#ffffff" opacity="0.29"/><circle cx="543.8" cy="96.1" r="0.74" fill="#c7d2fe" opacity="0.33"/><circle cx="543.8" cy="-3.9" r="0.74" fill="#c7d2fe" opacity="0.33"/><circle cx="129.1" cy="54.3" r="0.40" fill="#ffffff" opacity="0.15"/><circle cx="129.1" cy="-45.7" r="0.40" fill="#ffffff" opacity="0.15"/><circle cx="802.1" cy="27.3" r="0.65" fill="#ffffff" opacity="0.14"/><circle cx="802.1" cy="-72.7" r="0.65" fill="#ffffff" opacity="0.14"/><circle cx="227.8" cy="63.3" r="0.52" fill="#c7d2fe" opacity="0.31"/><circle cx="227.8" cy="-36.7" r="0.52" fill="#c7d2fe" opacity="0.31"/><circle cx="558.7" cy="94.3" r="0.60" fill="#cfe3ff" opacity="0.23"/><circle cx="558.7" cy="-5.7" r="0.60" fill="#cfe3ff" opacity="0.23"/><circle cx="396.7" cy="57.8" r="0.92" fill="#c7d2fe" opacity="0.18"/><circle cx="396.7" cy="-42.2" r="0.92" fill="#c7d2fe" opacity="0.18"/><circle cx="309.0" cy="22.5" r="0.79" fill="#ffffff" opacity="0.34"/><circle cx="309.0" cy="-77.5" r="0.79" fill="#ffffff" opacity="0.34"/><circle cx="594.8" cy="20.4" r="0.58" fill="#cfe3ff" opacity="0.20"/><circle cx="594.8" cy="-79.6" r="0.58" fill="#cfe3ff" opacity="0.20"/><circle cx="530.8" cy="22.0" r="0.61" fill="#cfe3ff" opacity="0.13"/><circle cx="530.8" cy="-78.0" r="0.61" fill="#cfe3ff" opacity="0.13"/><circle cx="1051.3" cy="22.2" r="0.66" fill="#cfe3ff" opacity="0.33"/><circle cx="1051.3" cy="-77.8" r="0.66" fill="#cfe3ff" opacity="0.33"/><circle cx="505.8" cy="74.6" r="0.70" fill="#c7d2fe" opacity="0.28"/><circle cx="505.8" cy="-25.4" r="0.70" fill="#c7d2fe" opacity="0.28"/><circle cx="579.8" cy="43.6" r="0.38" fill="#ffffff" opacity="0.37"/><circle cx="579.8" cy="-56.4" r="0.38" fill="#ffffff" opacity="0.37"/><circle cx="911.6" cy="75.3" r="0.69" fill="#cfe3ff" opacity="0.39"/><circle cx="911.6" cy="-24.7" r="0.69" fill="#cfe3ff" opacity="0.39"/><circle cx="148.8" cy="4.8" r="0.70" fill="#ffffff" opacity="0.26"/><circle cx="148.8" cy="-95.2" r="0.70" fill="#ffffff" opacity="0.26"/><circle cx="533.5" cy="47.2" r="0.51" fill="#ffffff" opacity="0.19"/><circle cx="533.5" cy="-52.8" r="0.51" fill="#ffffff" opacity="0.19"/><circle cx="523.1" cy="40.0" r="0.66" fill="#ffffff" opacity="0.28"/><circle cx="523.1" cy="-60.0" r="0.66" fill="#ffffff" opacity="0.28"/><circle cx="1009.6" cy="67.8" r="0.74" fill="#ffffff" opacity="0.22"/><circle cx="1009.6" cy="-32.2" r="0.74" fill="#ffffff" opacity="0.22"/><circle cx="1137.8" cy="17.7" r="0.63" fill="#cfe3ff" opacity="0.13"/><circle cx="1137.8" cy="-82.3" r="0.63" fill="#cfe3ff" opacity="0.13"/></g><g><animateTransform attributeName="transform" type="translate" values="0 0;0 100" dur="46s" repeatCount="indefinite"/><circle cx="462.4" cy="30.8" r="1.39" fill="#fde68a" opacity="0.30"><animate attributeName="opacity" values="0.30;0.07;0.30" dur="3.0s" repeatCount="indefinite"/></circle><circle cx="462.4" cy="-69.2" r="1.39" fill="#fde68a" opacity="0.30"><animate attributeName="opacity" values="0.30;0.07;0.30" dur="3.0s" repeatCount="indefinite"/></circle><circle cx="674.1" cy="80.0" r="1.18" fill="#a5f3fc" opacity="0.65"/><circle cx="674.1" cy="-20.0" r="1.18" fill="#a5f3fc" opacity="0.65"/><circle cx="1054.9" cy="39.4" r="1.38" fill="#fde68a" opacity="0.63"/><circle cx="1054.9" cy="-60.6" r="1.38" fill="#fde68a" opacity="0.63"/><circle cx="1177.8" cy="63.7" r="1.14" fill="#ffffff" opacity="0.42"><animate attributeName="opacity" values="0.42;0.09;0.42" dur="4.5s" repeatCount="indefinite"/></circle><circle cx="1177.8" cy="-36.3" r="1.14" fill="#ffffff" opacity="0.42"><animate attributeName="opacity" values="0.42;0.09;0.42" dur="4.5s" repeatCount="indefinite"/></circle><circle cx="581.6" cy="62.8" r="1.01" fill="#ffffff" opacity="0.53"><animate attributeName="opacity" values="0.53;0.12;0.53" dur="3.8s" repeatCount="indefinite"/></circle><circle cx="581.6" cy="-37.2" r="1.01" fill="#ffffff" opacity="0.53"><animate attributeName="opacity" values="0.53;0.12;0.53" dur="3.8s" repeatCount="indefinite"/></circle><circle cx="971.1" cy="64.3" r="0.73" fill="#fde68a" opacity="0.63"><animate attributeName="opacity" values="0.63;0.14;0.63" dur="3.4s" repeatCount="indefinite"/></circle><circle cx="971.1" cy="-35.7" r="0.73" fill="#fde68a" opacity="0.63"><animate attributeName="opacity" values="0.63;0.14;0.63" dur="3.4s" repeatCount="indefinite"/></circle><circle cx="639.3" cy="32.4" r="1.41" fill="#a5f3fc" opacity="0.57"><animate attributeName="opacity" values="0.57;0.13;0.57" dur="6.4s" repeatCount="indefinite"/></circle><circle cx="639.3" cy="-67.6" r="1.41" fill="#a5f3fc" opacity="0.57"><animate attributeName="opacity" values="0.57;0.13;0.57" dur="6.4s" repeatCount="indefinite"/></circle><circle cx="489.7" cy="54.5" r="1.01" fill="#fde68a" opacity="0.31"><animate attributeName="opacity" values="0.31;0.07;0.31" dur="2.6s" repeatCount="indefinite"/></circle><circle cx="489.7" cy="-45.5" r="1.01" fill="#fde68a" opacity="0.31"><animate attributeName="opacity" values="0.31;0.07;0.31" dur="2.6s" repeatCount="indefinite"/></circle><circle cx="249.8" cy="68.2" r="1.26" fill="#ffffff" opacity="0.30"/><circle cx="249.8" cy="-31.8" r="1.26" fill="#ffffff" opacity="0.30"/><circle cx="1010.9" cy="4.5" r="1.20" fill="#ffffff" opacity="0.49"/><circle cx="1010.9" cy="-95.5" r="1.20" fill="#ffffff" opacity="0.49"/><circle cx="738.9" cy="94.1" r="1.21" fill="#dbeafe" opacity="0.61"><animate attributeName="opacity" values="0.61;0.13;0.61" dur="4.9s" repeatCount="indefinite"/></circle><circle cx="738.9" cy="-5.9" r="1.21" fill="#dbeafe" opacity="0.61"><animate attributeName="opacity" values="0.61;0.13;0.61" dur="4.9s" repeatCount="indefinite"/></circle><circle cx="1116.8" cy="94.7" r="0.80" fill="#dbeafe" opacity="0.47"><animate attributeName="opacity" values="0.47;0.10;0.47" dur="3.1s" repeatCount="indefinite"/></circle><circle cx="1116.8" cy="-5.3" r="0.80" fill="#dbeafe" opacity="0.47"><animate attributeName="opacity" values="0.47;0.10;0.47" dur="3.1s" repeatCount="indefinite"/></circle></g></g>
  <rect x="1" y="1" width="1198" height="98" rx="14" fill="none" stroke="#16324f" stroke-width="1"/>
  <g fill="none" stroke="#22d3ee" stroke-width="2" opacity="0.85">
    <path d="M14,18 L14,10 L30,10"/><path d="M1186,18 L1186,10 L1170,10"/>
    <path d="M14,82 L14,90 L30,90"/><path d="M1186,82 L1186,90 L1170,90"/>
  </g>
  <g transform="translate(60,50)">
    <path d="M26,0 L13,22 L-13,22 L-26,0 L-13,-22 L13,-22 Z" fill="#081527" stroke="#1e3a5f" stroke-width="1.4"/>
    <g transform="scale(1.12)" filter="url(#glow)"><path d="M-12,9 C-6,-9 6,-9 12,7" fill="none" stroke="#5eead4" stroke-width="2" stroke-dasharray="3 3"/><circle cx="-12" cy="9" r="3.4" fill="none" stroke="#5eead4" stroke-width="2"/><circle cx="12" cy="7" r="3.4" fill="#c4b5fd" filter="url(#glow)"/></g>
  </g>
  <text x="112" y="46" font-family="Inter, 'Segoe UI', system-ui, -apple-system, Arial, sans-serif" font-size="25" font-weight="800" letter-spacing="2.4" fill="url(#nameGrad)">FLIGHT LOG</text>
  <text x="114" y="70" font-family="'JetBrains Mono', Consolas, 'Courier New', monospace" font-size="11.5" letter-spacing="1.4" fill="#7f93b3">EXPERIENCE &amp; HACKATHONS</text>
  <g transform="translate(995,84)"><rect x="0" y="-10" width="5" height="10" rx="1.6" fill="#22d3ee" opacity="0.45"><animate attributeName="opacity" values="0.3;0.9;0.3" dur="1.6s" repeatCount="indefinite"/></rect><rect x="11" y="-17" width="5" height="17" rx="1.6" fill="#22d3ee" opacity="0.55"><animate attributeName="opacity" values="0.4;0.85;0.4" dur="2.1s" repeatCount="indefinite"/></rect><rect x="22" y="-24" width="5" height="24" rx="1.6" fill="#f0abfc" opacity="0.65"><animate attributeName="opacity" values="0.5;0.8;0.5" dur="2.6s" repeatCount="indefinite"/></rect><rect x="33" y="-14" width="5" height="14" rx="1.6" fill="#22d3ee" opacity="0.75"><animate attributeName="opacity" values="0.6000000000000001;0.75;0.6000000000000001" dur="3.1s" repeatCount="indefinite"/></rect><rect x="44" y="-20" width="5" height="20" rx="1.6" fill="#22d3ee" opacity="0.8500000000000001"><animate attributeName="opacity" values="0.7;0.7;0.7" dur="3.6s" repeatCount="indefinite"/></rect></g>
  <text x="1170" y="34" text-anchor="end" font-family="'JetBrains Mono', Consolas, 'Courier New', monospace" font-size="10.5" letter-spacing="2" fill="#4b6b91">NODE 06</text>
  <line x1="26" y1="85" x2="1174" y2="85" stroke="#12233d" stroke-width="1"/>
  <rect x="26" y="86" width="240" height="2" fill="url(#lineGrad)" opacity="0.9">
    <animateTransform attributeName="transform" type="translate" values="-260 0;1200 0" dur="7s" repeatCount="indefinite"/>
  </rect>
</svg>